<svg xmlns="http://www.w3.org/2000/svg" width="32" height="32" viewBox="0 0 32 32" fill="none">
  <path d="M16 2C8.268 2 2 8.268 2 16C2 23.732 8.268 30 16 30C23.732 30 30 23.732 30 16C30 8.268 23.732 2 16 2Z" fill="#1A1A1A"/>
  <path d="M23 16C23 19.866 19.866 23 16 23C12.134 23 9 19.866 9 16C9 12.134 12.134 9 16 9C19.866 9 23 12.134 23 16Z" fill="#FFFFFF"/>
  <path d="M20 16C20 17.657 18.657 19 17 19C15.343 19 14 17.657 14 16C14 14.343 15.343 13 17 13C18.657 13 20 14.343 20 16Z" fill="#1A1A1A"/>
</svg>